# xmcd CD database file
#
# Track frame offsets:
#	150
#	33746
#	68518
#	106466
#	145839
#	175344
#
# Disc length: 2757 seconds
#
# Revision: 0
# Processed by: cddbd v1.5PL3 Copyright (c) Steve Scherf et al.
# Submitted via: CDex 1.51
#
DISCID=500ac306
DTITLE=Jamie Anderson and Dogcatcher's Trio - Dogcatcher's Trio
DYEAR=1998
DGENRE=Jazz
TTITLE0=Watermelon Caller
TTITLE1=Be Marsupial
TTITLE2=Love is a many splendoured thing
TTITLE3=The nipper's rhythm
TTITLE4=Chelsea Bridge
TTITLE5=Dog Catchers
EXTD=YEAR: 1998
EXTT0=
EXTT1=
EXTT2=
EXTT3=
EXTT4=
EXTT5=
PLAYORDER=
